<svg width="488" height="68" viewBox="0 0 488 68" fill="none" xmlns="http://www.w3.org/2000/svg">
<path d="M451.724 65.5592C451.195 65.5592 450.843 65.3388 450.666 64.8982C450.49 64.4575 450.578 63.9728 450.931 63.444L458.995 50.7528L452.583 20.479C452.495 19.9942 452.583 19.5756 452.848 19.2231C453.112 18.8265 453.575 18.6282 454.236 18.6282H459.193C459.722 18.6282 460.097 18.7604 460.317 19.0248C460.537 19.2451 460.669 19.5315 460.713 19.8841L465.142 41.5649L478.891 19.8841C479.111 19.5315 479.376 19.2451 479.684 19.0248C480.037 18.7604 480.477 18.6282 481.006 18.6282H486.691C487.131 18.6282 487.462 18.8265 487.682 19.2231C487.947 19.5756 487.925 20.0383 487.616 20.6112L459.391 64.3033C459.171 64.6558 458.885 64.9422 458.532 65.1626C458.224 65.427 457.805 65.5592 457.276 65.5592H451.724Z" fill="white"/>
<path d="M422.18 53.0002C421.74 53.0002 421.387 52.8459 421.123 52.5375C420.902 52.229 420.836 51.8544 420.924 51.4138L427.534 20.2807C427.623 19.7959 427.843 19.3993 428.195 19.0909C428.592 18.7824 429.011 18.6282 429.451 18.6282H434.805C435.246 18.6282 435.577 18.7824 435.797 19.0909C436.061 19.3993 436.15 19.7959 436.061 20.2807L435.466 22.9908C436.524 21.5806 437.868 20.501 439.499 19.7519C441.129 19.0027 443.112 18.6282 445.448 18.6282H448.686C449.171 18.6282 449.524 18.7824 449.744 19.0909C449.964 19.3993 450.031 19.7739 449.942 20.2146L448.951 24.9738C448.863 25.4144 448.62 25.789 448.224 26.0975C447.871 26.4059 447.475 26.5602 447.034 26.5602H441.878C439.763 26.5602 437.978 27.1551 436.524 28.3449C435.114 29.5347 434.189 31.1651 433.748 33.2363L429.848 51.4138C429.76 51.8544 429.54 52.229 429.187 52.5375C428.834 52.8459 428.416 53.0002 427.931 53.0002H422.18Z" fill="white"/>
<path d="M393.399 53.661C391.107 53.661 389.168 53.2865 387.582 52.5373C385.996 51.7441 384.74 50.6425 383.814 49.2323C382.933 47.8222 382.36 46.1697 382.096 44.2748C381.831 42.3359 381.875 40.2207 382.228 37.9292C382.404 37.136 382.558 36.431 382.691 35.814C382.823 35.153 382.977 34.4259 383.153 33.6327C383.726 31.4294 384.475 29.3803 385.401 27.4854C386.37 25.5906 387.538 23.9381 388.904 22.5279C390.314 21.0737 391.945 19.95 393.795 19.1568C395.69 18.3636 397.85 17.967 400.273 17.967C403.005 17.967 405.077 18.4077 406.487 19.289C407.941 20.1263 409.065 21.1619 409.858 22.3957L410.32 20.2144C410.409 19.7738 410.629 19.3992 410.981 19.0907C411.334 18.7823 411.731 18.628 412.171 18.628H417.393C417.834 18.628 418.186 18.7823 418.451 19.0907C418.715 19.3992 418.803 19.7738 418.715 20.2144L412.039 51.4136C411.951 51.8543 411.731 52.2289 411.378 52.5373C411.026 52.8458 410.629 53 410.188 53H404.966C404.482 53 404.107 52.8458 403.843 52.5373C403.622 52.2289 403.556 51.8543 403.644 51.4136L404.173 48.9679C402.851 50.334 401.397 51.4577 399.811 52.339C398.224 53.2204 396.087 53.661 393.399 53.661ZM396.373 46.5883C398.224 46.5883 399.811 46.1697 401.133 45.3324C402.455 44.4952 403.512 43.4376 404.305 42.1596C405.143 40.8376 405.738 39.4936 406.09 38.1275C406.31 37.3343 406.509 36.4971 406.685 35.6157C406.861 34.6903 407.015 33.831 407.148 33.0378C407.412 31.7158 407.412 30.4599 407.148 29.2701C406.927 28.0363 406.376 27.0227 405.495 26.2295C404.614 25.4363 403.27 25.0397 401.463 25.0397C399.744 25.0397 398.268 25.4584 397.034 26.2956C395.845 27.0888 394.853 28.1464 394.06 29.4684C393.267 30.7904 392.628 32.2446 392.143 33.831C391.967 34.492 391.812 35.153 391.68 35.814C391.548 36.475 391.438 37.136 391.35 37.797C391.129 39.3834 391.063 40.8376 391.151 42.1596C391.284 43.4816 391.746 44.5613 392.54 45.3985C393.377 46.1917 394.655 46.5883 396.373 46.5883Z" fill="white"/>
<path d="M364.665 53.0001C364.224 53.0001 363.872 52.8458 363.607 52.5374C363.387 52.2289 363.321 51.8543 363.409 51.4137L370.019 20.2145C370.107 19.7738 370.327 19.3992 370.68 19.0908C371.076 18.7823 371.495 18.6281 371.936 18.6281H377.422C377.907 18.6281 378.259 18.7823 378.48 19.0908C378.7 19.3992 378.766 19.7738 378.678 20.2145L372.068 51.4137C371.98 51.8543 371.759 52.2289 371.407 52.5374C371.054 52.8458 370.636 53.0001 370.151 53.0001H364.665ZM372.861 12.9435C372.421 12.9435 372.068 12.8113 371.804 12.5469C371.583 12.2384 371.517 11.8418 371.605 11.3571L372.663 6.59787C372.751 6.15721 372.971 5.78264 373.324 5.47417C373.676 5.16571 374.095 5.01147 374.58 5.01147H380.595C381.036 5.01147 381.388 5.16571 381.652 5.47417C381.917 5.78264 382.005 6.15721 381.917 6.59787L380.859 11.3571C380.771 11.8418 380.529 12.2384 380.132 12.5469C379.78 12.8113 379.383 12.9435 378.942 12.9435H372.861Z" fill="white"/>
<path d="M319.047 53C318.563 53 318.188 52.8458 317.924 52.5373C317.703 52.2288 317.637 51.8542 317.725 51.4136L326.913 8.38248C327.001 7.89775 327.222 7.50115 327.574 7.19268C327.927 6.88421 328.345 6.72998 328.83 6.72998H343.967C346.875 6.72998 349.497 7.12658 351.833 7.91978C354.168 8.66891 356.107 9.81465 357.65 11.357C359.192 12.8552 360.272 14.7281 360.889 16.9755C361.506 19.2229 361.55 21.8008 361.021 24.7092C360.624 26.6481 360.272 28.3667 359.963 29.865C359.655 31.3632 359.258 33.0598 358.773 34.9547C357.804 39.0529 356.416 42.446 354.609 45.1341C352.846 47.7781 350.489 49.7611 347.536 51.0831C344.628 52.361 340.904 53 336.365 53H319.047ZM328.235 45.3985H336.696C339.164 45.3985 341.235 45.0459 342.909 44.3409C344.628 43.6358 346.016 42.5121 347.074 40.9698C348.131 39.3834 348.947 37.3122 349.519 34.7564C349.872 33.4344 350.158 32.2886 350.379 31.3192C350.599 30.3056 350.797 29.3141 350.974 28.3447C351.194 27.3311 351.414 26.1854 351.635 24.9075C352.34 21.294 352.009 18.628 350.643 16.9094C349.321 15.1908 346.765 14.3315 342.975 14.3315H334.845L328.235 45.3985Z" fill="white"/>
<path d="M300.759 53.0001C300.318 53.0001 299.965 52.8459 299.701 52.5374C299.481 52.2289 299.414 51.8544 299.503 51.4137L308.823 7.65549C308.911 7.21482 309.131 6.84026 309.484 6.53179C309.836 6.22333 310.233 6.06909 310.674 6.06909H316.16C316.645 6.06909 316.997 6.22333 317.217 6.53179C317.482 6.84026 317.57 7.21482 317.482 7.65549L308.162 51.4137C308.074 51.8544 307.853 52.2289 307.501 52.5374C307.148 52.8459 306.73 53.0001 306.245 53.0001H300.759Z" fill="white"/>
<path d="M271.977 53.661C269.686 53.661 267.747 53.2865 266.16 52.5373C264.574 51.7441 263.318 50.6425 262.392 49.2323C261.511 47.8222 260.938 46.1697 260.674 44.2748C260.409 42.3359 260.454 40.2207 260.806 37.9292C260.982 37.136 261.137 36.431 261.269 35.814C261.401 35.153 261.555 34.4259 261.731 33.6327C262.304 31.4294 263.053 29.3803 263.979 27.4854C264.948 25.5906 266.116 23.9381 267.482 22.5279C268.892 21.0737 270.523 19.95 272.374 19.1568C274.268 18.3636 276.428 17.967 278.851 17.967C281.584 17.967 283.655 18.4077 285.065 19.289C286.519 20.1263 287.643 21.1619 288.436 22.3957L288.899 20.2144C288.987 19.7738 289.207 19.3992 289.56 19.0907C289.912 18.7823 290.309 18.628 290.749 18.628H295.971C296.412 18.628 296.764 18.7823 297.029 19.0907C297.293 19.3992 297.381 19.7738 297.293 20.2144L290.617 51.4136C290.529 51.8543 290.309 52.2289 289.956 52.5373C289.604 52.8458 289.207 53 288.766 53H283.544C283.06 53 282.685 52.8458 282.421 52.5373C282.2 52.2289 282.134 51.8543 282.222 51.4136L282.751 48.9679C281.429 50.334 279.975 51.4577 278.389 52.339C276.802 53.2204 274.665 53.661 271.977 53.661ZM274.951 46.5883C276.802 46.5883 278.389 46.1697 279.711 45.3324C281.033 44.4952 282.09 43.4376 282.883 42.1596C283.721 40.8376 284.316 39.4936 284.668 38.1275C284.889 37.3343 285.087 36.4971 285.263 35.6157C285.439 34.6903 285.594 33.831 285.726 33.0378C285.99 31.7158 285.99 30.4599 285.726 29.2701C285.505 28.0363 284.955 27.0227 284.073 26.2295C283.192 25.4363 281.848 25.0397 280.041 25.0397C278.323 25.0397 276.846 25.4584 275.612 26.2956C274.423 27.0888 273.431 28.1464 272.638 29.4684C271.845 30.7904 271.206 32.2446 270.721 33.831C270.545 34.492 270.391 35.153 270.258 35.814C270.126 36.475 270.016 37.136 269.928 37.797C269.708 39.3834 269.641 40.8376 269.73 42.1596C269.862 43.4816 270.324 44.5613 271.118 45.3985C271.955 46.1917 273.233 46.5883 274.951 46.5883Z" fill="white"/>
<path d="M246.999 53.0001C244.003 53.0001 241.667 52.5374 239.993 51.612C238.318 50.6866 237.239 49.3205 236.754 47.5138C236.269 45.663 236.313 43.3715 236.886 40.6394L240.125 25.6347H234.903C234.462 25.6347 234.11 25.4805 233.845 25.172C233.625 24.8635 233.559 24.489 233.647 24.0483L234.44 20.2145C234.528 19.7738 234.749 19.3993 235.101 19.0908C235.498 18.7823 235.939 18.6281 236.423 18.6281H241.579L243.959 7.65549C244.047 7.21482 244.267 6.84026 244.62 6.53179C244.972 6.22333 245.369 6.06909 245.81 6.06909H251.164C251.648 6.06909 252.001 6.22333 252.221 6.53179C252.486 6.84026 252.574 7.21482 252.486 7.65549L250.106 18.6281H258.369C258.809 18.6281 259.14 18.7823 259.36 19.0908C259.624 19.3993 259.713 19.7738 259.624 20.2145L258.831 24.0483C258.743 24.489 258.501 24.8635 258.104 25.172C257.752 25.4805 257.355 25.6347 256.914 25.6347H248.652L245.611 39.9784C245.347 41.1682 245.193 42.2038 245.149 43.0851C245.149 43.9224 245.391 44.5834 245.876 45.0681C246.36 45.5088 247.22 45.7291 248.454 45.7291H253.213C253.697 45.7291 254.05 45.8833 254.27 46.1918C254.491 46.5003 254.557 46.8748 254.469 47.3155L253.609 51.4137C253.521 51.8544 253.301 52.2289 252.948 52.5374C252.596 52.8459 252.177 53.0001 251.692 53.0001H246.999Z" fill="white"/>
<path d="M215.294 53.0001C214.853 53.0001 214.5 52.8458 214.236 52.5374C214.016 52.2289 213.95 51.8543 214.038 51.4137L220.648 20.2145C220.736 19.7738 220.956 19.3992 221.309 19.0908C221.705 18.7823 222.124 18.6281 222.565 18.6281H228.051C228.536 18.6281 228.888 18.7823 229.109 19.0908C229.329 19.3992 229.395 19.7738 229.307 20.2145L222.697 51.4137C222.609 51.8543 222.388 52.2289 222.036 52.5374C221.683 52.8458 221.265 53.0001 220.78 53.0001H215.294ZM223.49 12.9435C223.049 12.9435 222.697 12.8113 222.432 12.5469C222.212 12.2384 222.146 11.8418 222.234 11.3571L223.292 6.59787C223.38 6.15721 223.6 5.78264 223.953 5.47417C224.305 5.16571 224.724 5.01147 225.209 5.01147H231.224C231.664 5.01147 232.017 5.16571 232.281 5.47417C232.546 5.78264 232.634 6.15721 232.546 6.59787L231.488 11.3571C231.4 11.8418 231.158 12.2384 230.761 12.5469C230.409 12.8113 230.012 12.9435 229.571 12.9435H223.49Z" fill="white"/>
<path d="M185.73 67.542C182.689 67.542 180.199 67.1234 178.26 66.2861C176.365 65.4489 174.889 64.4353 173.832 63.2455C172.774 62.0557 172.091 60.8659 171.782 59.6761C171.43 58.5304 171.298 57.627 171.386 56.966C171.474 56.5254 171.694 56.1288 172.047 55.7762C172.355 55.4678 172.73 55.3135 173.171 55.3135H179.12C179.56 55.3135 179.891 55.4017 180.111 55.5779C180.331 55.7983 180.464 56.1728 180.508 56.7016C180.596 57.2745 180.772 57.8914 181.036 58.5524C181.345 59.2134 181.896 59.7643 182.689 60.2049C183.482 60.6897 184.672 60.932 186.258 60.932C187.757 60.932 189.145 60.6897 190.423 60.2049C191.745 59.7202 192.868 58.905 193.794 57.7592C194.763 56.6135 195.468 55.0271 195.909 53L196.834 48.5052C195.512 49.7832 194.036 50.8187 192.406 51.6119C190.775 52.4051 188.77 52.8017 186.391 52.8017C183.967 52.8017 181.94 52.4272 180.309 51.678C178.679 50.8848 177.401 49.8052 176.476 48.4391C175.594 47.029 175.021 45.3765 174.757 43.4816C174.537 41.5868 174.603 39.4936 174.955 37.2021C175.043 36.5411 175.131 35.9462 175.22 35.4174C175.352 34.8886 175.506 34.2937 175.682 33.6327C176.299 31.4294 177.07 29.3803 177.996 27.4854C178.965 25.5906 180.133 23.9381 181.499 22.5279C182.865 21.0737 184.474 19.95 186.324 19.1568C188.175 18.3636 190.312 17.967 192.736 17.967C195.248 17.967 197.319 18.4518 198.95 19.4212C200.624 20.3466 201.858 21.5144 202.651 22.9245L203.18 20.2805C203.268 19.7958 203.488 19.3992 203.841 19.0907C204.238 18.7823 204.678 18.628 205.163 18.628H210.451C210.936 18.628 211.288 18.7823 211.509 19.0907C211.773 19.3992 211.861 19.7958 211.773 20.2805L205.031 52.1407C204.546 54.5203 203.819 56.6576 202.849 58.5524C201.924 60.4473 200.69 62.0557 199.148 63.3777C197.65 64.7438 195.799 65.7794 193.595 66.4844C191.392 67.1895 188.77 67.542 185.73 67.542ZM189.299 45.7951C191.106 45.7951 192.67 45.3985 193.992 44.6053C195.314 43.8121 196.416 42.7766 197.297 41.4986C198.178 40.2207 198.795 38.9207 199.148 37.5987C199.28 37.0259 199.434 36.2988 199.611 35.4174C199.787 34.5361 199.919 33.831 200.007 33.3022C200.227 31.9362 200.205 30.6362 199.941 29.4023C199.721 28.1244 199.148 27.0888 198.222 26.2956C197.341 25.4584 195.997 25.0397 194.19 25.0397C192.472 25.0397 190.973 25.4584 189.696 26.2956C188.418 27.0888 187.36 28.1464 186.523 29.4684C185.73 30.7904 185.113 32.2446 184.672 33.831C184.54 34.3598 184.408 34.8886 184.275 35.4174C184.143 35.9462 184.033 36.4971 183.945 37.0699C183.724 38.6123 183.68 40.0665 183.813 41.4325C183.945 42.7545 184.43 43.8121 185.267 44.6053C186.148 45.3985 187.492 45.7951 189.299 45.7951Z" fill="white"/>
<path d="M157.262 53.0001C156.822 53.0001 156.469 52.8458 156.205 52.5374C155.984 52.2289 155.918 51.8543 156.007 51.4137L162.617 20.2145C162.705 19.7738 162.925 19.3992 163.278 19.0908C163.674 18.7823 164.093 18.6281 164.533 18.6281H170.02C170.504 18.6281 170.857 18.7823 171.077 19.0908C171.298 19.3992 171.364 19.7738 171.276 20.2145L164.666 51.4137C164.577 51.8543 164.357 52.2289 164.005 52.5374C163.652 52.8458 163.233 53.0001 162.749 53.0001H157.262ZM165.459 12.9435C165.018 12.9435 164.666 12.8113 164.401 12.5469C164.181 12.2384 164.115 11.8418 164.203 11.3571L165.261 6.59787C165.349 6.15721 165.569 5.78264 165.922 5.47417C166.274 5.16571 166.693 5.01147 167.177 5.01147H173.193C173.633 5.01147 173.986 5.16571 174.25 5.47417C174.515 5.78264 174.603 6.15721 174.515 6.59787L173.457 11.3571C173.369 11.8418 173.126 12.2384 172.73 12.5469C172.377 12.8113 171.981 12.9435 171.54 12.9435H165.459Z" fill="white"/>
<path d="M111.645 53C111.16 53 110.786 52.8458 110.521 52.5373C110.301 52.2288 110.235 51.8542 110.323 51.4136L119.511 8.38248C119.599 7.89775 119.819 7.50115 120.172 7.19268C120.524 6.88421 120.943 6.72998 121.428 6.72998H136.565C139.473 6.72998 142.095 7.12658 144.431 7.91978C146.766 8.66891 148.705 9.81465 150.247 11.357C151.79 12.8552 152.869 14.7281 153.486 16.9755C154.103 19.2229 154.147 21.8008 153.618 24.7092C153.222 26.6481 152.869 28.3667 152.561 29.865C152.252 31.3632 151.856 33.0598 151.371 34.9547C150.402 39.0529 149.013 42.446 147.207 45.1341C145.444 47.7781 143.086 49.7611 140.134 51.0831C137.226 52.361 133.502 53 128.963 53H111.645ZM120.833 45.3985H129.294C131.761 45.3985 133.832 45.0459 135.507 44.3409C137.226 43.6358 138.614 42.5121 139.671 40.9698C140.729 39.3834 141.544 37.3122 142.117 34.7564C142.47 33.4344 142.756 32.2886 142.976 31.3192C143.197 30.3056 143.395 29.3141 143.571 28.3447C143.792 27.3311 144.012 26.1854 144.232 24.9075C144.937 21.294 144.607 18.628 143.241 16.9094C141.919 15.1908 139.363 14.3315 135.573 14.3315H127.443L120.833 45.3985Z" fill="white"/>
<path d="M42.5 0C48.2649 0.939828 51.4918 2.21068 56 6C59.2408 9.626 60.1139 12.1455 61 17V24.5C59.8282 30.7161 58.8436 33.9781 56.5 39.5C50.0811 52.1719 44.6255 57.2886 30.5 60H0L22 0H42.5ZM29.1494 11.5L29.0293 11.8301L16.0293 47.8301L15.7881 48.5H30.5674L30.6318 48.4824C34.1396 47.5229 36.6157 46.5626 38.7031 45.2275C40.7934 43.8905 42.4641 42.1964 44.3887 39.8145L44.4229 39.7725L46.4473 35.7236L46.4629 35.6914L46.4746 35.6582V35.6562C46.475 35.6551 46.4758 35.6535 46.4766 35.6514C46.478 35.647 46.4806 35.6404 46.4834 35.6318C46.4891 35.6148 46.4969 35.5894 46.5078 35.5566C46.5298 35.4903 46.5625 35.3927 46.6035 35.2686C46.6857 35.0201 46.8035 34.6636 46.9443 34.2334C47.2259 33.3731 47.6009 32.2149 47.9766 31.0254C48.352 29.8366 48.7286 28.613 49.0117 27.6221C49.1532 27.127 49.273 26.6849 49.3574 26.333C49.4363 26.0043 49.5 25.6949 49.5 25.5V20.9648L49.4951 20.9297C48.9872 17.3742 47.9583 15.1167 46.3994 13.6934C44.9397 12.3606 43.0849 11.8243 40.9795 11.5537L40.5557 11.5029L40.5273 11.5H29.1494Z" fill="white"/>
<path d="M65.5 59.5H40C46.0871 55.9571 48.9359 53.3964 53.5 48H66C72.6342 45.9717 75.0879 43.9071 79 38.5C81.7525 33.093 82.9943 29.8255 84 23.5V20.5C83.3119 17.7849 82.8698 16.3766 81.5 15C79.1764 12.1244 77.4664 11.3122 74 11H61.5C59.1838 6.39116 54.5 1.5 54.5 1V0H77.5C81.1921 0.199315 83.5912 1.26607 88 3.5C91.1833 6.3658 92.7643 8.60233 95 13.5C96.4505 18.2053 96.4316 21.0859 95.5 26.5L94 31.5C92.2111 37.6594 90.8854 40.9633 87 46C83.7786 50.0727 82.0547 52.0178 78 55C73.3046 57.4066 70.6175 58.4294 65.5 59.5Z" fill="#75BC30"/>
</svg>
