<svg width="97" height="60" viewBox="0 0 97 60" fill="none" xmlns="http://www.w3.org/2000/svg">
<path d="M42.5 0C48.2649 0.939828 51.4918 2.21068 56 6C59.2408 9.626 60.1139 12.1455 61 17V24.5C59.8282 30.7161 58.8436 33.9781 56.5 39.5C50.0811 52.1719 44.6255 57.2886 30.5 60H0L22 0H42.5ZM29.1494 11.5L29.0293 11.8301L16.0293 47.8301L15.7881 48.5H30.5674L30.6318 48.4824C34.1396 47.5229 36.6157 46.5626 38.7031 45.2275C40.7934 43.8905 42.4641 42.1964 44.3887 39.8145L44.4229 39.7725L46.4473 35.7236L46.4629 35.6914L46.4746 35.6582V35.6562C46.475 35.6551 46.4758 35.6535 46.4766 35.6514C46.478 35.647 46.4806 35.6404 46.4834 35.6318C46.4891 35.6148 46.4969 35.5894 46.5078 35.5566C46.5298 35.4903 46.5625 35.3927 46.6035 35.2686C46.6857 35.0201 46.8035 34.6636 46.9443 34.2334C47.2259 33.3731 47.6009 32.2149 47.9766 31.0254C48.352 29.8366 48.7286 28.613 49.0117 27.6221C49.1532 27.127 49.273 26.6849 49.3574 26.333C49.4363 26.0043 49.5 25.6949 49.5 25.5V20.9648L49.4951 20.9297C48.9872 17.3742 47.9583 15.1167 46.3994 13.6934C44.9397 12.3606 43.0849 11.8243 40.9795 11.5537L40.5557 11.5029L40.5273 11.5H29.1494Z" fill="white"/>
<path d="M65.5 59.5H40C46.0871 55.9571 48.9359 53.3964 53.5 48H66C72.6342 45.9717 75.0879 43.9071 79 38.5C81.7525 33.093 82.9943 29.8255 84 23.5V20.5C83.3119 17.7849 82.8698 16.3766 81.5 15C79.1764 12.1244 77.4664 11.3122 74 11H61.5C59.1838 6.39116 54.5 1.5 54.5 1V0H77.5C81.1921 0.199315 83.5912 1.26607 88 3.5C91.1833 6.3658 92.7643 8.60233 95 13.5C96.4505 18.2053 96.4316 21.0859 95.5 26.5L94 31.5C92.2111 37.6594 90.8854 40.9633 87 46C83.7786 50.0727 82.0547 52.0178 78 55C73.3046 57.4066 70.6175 58.4294 65.5 59.5Z" fill="#75BC30"/>
</svg>
