<svg width="150" height="150" viewBox="0 0 150 150" fill="none" xmlns="http://www.w3.org/2000/svg">
<rect width="150" height="150" rx="30" fill="black"/>
<path d="M67.5 46C73.2649 46.9398 76.4918 48.2107 81 52C84.2408 55.626 85.1139 58.1455 86 63V70.5C84.8282 76.7161 83.8436 79.9781 81.5 85.5C75.0811 98.1719 69.6255 103.289 55.5 106H25L47 46H67.5ZM54.1494 57.5L54.0293 57.8301L41.0293 93.8301L40.7881 94.5H55.5674L55.6318 94.4824C59.1396 93.5229 61.6157 92.5626 63.7031 91.2275C65.7934 89.8905 67.4641 88.1964 69.3887 85.8145L69.4229 85.7725L71.4473 81.7236L71.4629 81.6914L71.4746 81.6582V81.6562C71.475 81.6551 71.4758 81.6535 71.4766 81.6514C71.478 81.647 71.4806 81.6404 71.4834 81.6318C71.4891 81.6148 71.4969 81.5894 71.5078 81.5566C71.5298 81.4903 71.5625 81.3927 71.6035 81.2686C71.6857 81.0201 71.8035 80.6636 71.9443 80.2334C72.2259 79.3731 72.6009 78.2149 72.9766 77.0254C73.352 75.8366 73.7286 74.613 74.0117 73.6221C74.1532 73.127 74.273 72.6849 74.3574 72.333C74.4363 72.0043 74.5 71.6949 74.5 71.5V66.9648L74.4951 66.9297C73.9872 63.3742 72.9583 61.1167 71.3994 59.6934C69.9397 58.3606 68.0849 57.8243 65.9795 57.5537L65.5557 57.5029L65.5273 57.5H54.1494Z" fill="white"/>
<path d="M90.5 105.5H65C71.0871 101.957 73.9359 99.3964 78.5 94H91C97.6342 91.9717 100.088 89.9071 104 84.5C106.752 79.093 107.994 75.8255 109 69.5V66.5C108.312 63.7849 107.87 62.3766 106.5 61C104.176 58.1244 102.466 57.3122 99 57H86.5C84.1838 52.3912 79.5 47.5 79.5 47V46H102.5C106.192 46.1993 108.591 47.2661 113 49.5C116.183 52.3658 117.764 54.6023 120 59.5C121.451 64.2053 121.432 67.0859 120.5 72.5L119 77.5C117.211 83.6594 115.885 86.9633 112 92C108.779 96.0727 107.055 98.0178 103 101C98.3046 103.407 95.6175 104.429 90.5 105.5Z" fill="#75BC30"/>
</svg>
