<svg width="516" height="158" viewBox="0 0 516 158" fill="none" xmlns="http://www.w3.org/2000/svg">
<path d="M0 15C0 6.71573 6.71573 0 15 0H501C509.284 0 516 6.71573 516 15V143C516 151.284 509.284 158 501 158H15C6.71574 158 0 151.284 0 143V15Z" fill="black"/>
<path d="M465.724 114.559C465.195 114.559 464.843 114.339 464.666 113.898C464.49 113.458 464.578 112.973 464.931 112.444L472.995 99.7528L466.583 69.479C466.495 68.9942 466.583 68.5756 466.848 68.2231C467.112 67.8265 467.575 67.6282 468.236 67.6282H473.193C473.722 67.6282 474.097 67.7604 474.317 68.0248C474.537 68.2451 474.669 68.5315 474.713 68.8841L479.142 90.5649L492.891 68.8841C493.111 68.5315 493.376 68.2451 493.684 68.0248C494.037 67.7604 494.477 67.6282 495.006 67.6282H500.691C501.131 67.6282 501.462 67.8265 501.682 68.2231C501.947 68.5756 501.925 69.0383 501.616 69.6112L473.391 113.303C473.171 113.656 472.885 113.942 472.532 114.163C472.224 114.427 471.805 114.559 471.276 114.559H465.724Z" fill="white"/>
<path d="M436.18 102C435.74 102 435.387 101.846 435.123 101.537C434.902 101.229 434.836 100.854 434.924 100.414L441.534 69.2807C441.623 68.7959 441.843 68.3993 442.195 68.0909C442.592 67.7824 443.011 67.6282 443.451 67.6282H448.805C449.246 67.6282 449.577 67.7824 449.797 68.0909C450.061 68.3993 450.15 68.7959 450.061 69.2807L449.466 71.9908C450.524 70.5806 451.868 69.501 453.499 68.7519C455.129 68.0027 457.112 67.6282 459.448 67.6282H462.686C463.171 67.6282 463.524 67.7824 463.744 68.0909C463.964 68.3993 464.031 68.7739 463.942 69.2146L462.951 73.9738C462.863 74.4144 462.62 74.789 462.224 75.0975C461.871 75.4059 461.475 75.5602 461.034 75.5602H455.878C453.763 75.5602 451.978 76.1551 450.524 77.3449C449.114 78.5347 448.189 80.1651 447.748 82.2363L443.848 100.414C443.76 100.854 443.54 101.229 443.187 101.537C442.834 101.846 442.416 102 441.931 102H436.18Z" fill="white"/>
<path d="M407.399 102.661C405.107 102.661 403.168 102.286 401.582 101.537C399.996 100.744 398.74 99.6425 397.814 98.2323C396.933 96.8222 396.36 95.1697 396.096 93.2748C395.831 91.3359 395.875 89.2207 396.228 86.9292C396.404 86.136 396.558 85.431 396.691 84.814C396.823 84.153 396.977 83.4259 397.153 82.6327C397.726 80.4294 398.475 78.3803 399.401 76.4854C400.37 74.5906 401.538 72.9381 402.904 71.5279C404.314 70.0737 405.945 68.95 407.795 68.1568C409.69 67.3636 411.85 66.967 414.273 66.967C417.005 66.967 419.077 67.4077 420.487 68.289C421.941 69.1263 423.065 70.1619 423.858 71.3957L424.32 69.2144C424.409 68.7738 424.629 68.3992 424.981 68.0907C425.334 67.7823 425.731 67.628 426.171 67.628H431.393C431.834 67.628 432.186 67.7823 432.451 68.0907C432.715 68.3992 432.803 68.7738 432.715 69.2144L426.039 100.414C425.951 100.854 425.731 101.229 425.378 101.537C425.026 101.846 424.629 102 424.188 102H418.966C418.482 102 418.107 101.846 417.843 101.537C417.622 101.229 417.556 100.854 417.644 100.414L418.173 97.9679C416.851 99.334 415.397 100.458 413.811 101.339C412.224 102.22 410.087 102.661 407.399 102.661ZM410.373 95.5883C412.224 95.5883 413.811 95.1697 415.133 94.3324C416.455 93.4952 417.512 92.4376 418.305 91.1596C419.143 89.8376 419.738 88.4936 420.09 87.1275C420.31 86.3343 420.509 85.4971 420.685 84.6157C420.861 83.6903 421.015 82.831 421.148 82.0378C421.412 80.7158 421.412 79.4599 421.148 78.2701C420.927 77.0363 420.376 76.0227 419.495 75.2295C418.614 74.4363 417.27 74.0397 415.463 74.0397C413.744 74.0397 412.268 74.4584 411.034 75.2956C409.845 76.0888 408.853 77.1464 408.06 78.4684C407.267 79.7904 406.628 81.2446 406.143 82.831C405.967 83.492 405.812 84.153 405.68 84.814C405.548 85.475 405.438 86.136 405.35 86.797C405.129 88.3834 405.063 89.8376 405.151 91.1596C405.284 92.4816 405.746 93.5613 406.54 94.3985C407.377 95.1917 408.655 95.5883 410.373 95.5883Z" fill="white"/>
<path d="M378.665 102C378.224 102 377.872 101.846 377.607 101.537C377.387 101.229 377.321 100.854 377.409 100.414L384.019 69.2145C384.107 68.7738 384.327 68.3992 384.68 68.0908C385.076 67.7823 385.495 67.6281 385.936 67.6281H391.422C391.907 67.6281 392.259 67.7823 392.48 68.0908C392.7 68.3992 392.766 68.7738 392.678 69.2145L386.068 100.414C385.98 100.854 385.759 101.229 385.407 101.537C385.054 101.846 384.636 102 384.151 102H378.665ZM386.861 61.9435C386.421 61.9435 386.068 61.8113 385.804 61.5469C385.583 61.2384 385.517 60.8418 385.605 60.3571L386.663 55.5979C386.751 55.1572 386.971 54.7826 387.324 54.4742C387.676 54.1657 388.095 54.0115 388.58 54.0115H394.595C395.036 54.0115 395.388 54.1657 395.652 54.4742C395.917 54.7826 396.005 55.1572 395.917 55.5979L394.859 60.3571C394.771 60.8418 394.529 61.2384 394.132 61.5469C393.78 61.8113 393.383 61.9435 392.942 61.9435H386.861Z" fill="white"/>
<path d="M333.047 102C332.563 102 332.188 101.846 331.924 101.537C331.703 101.229 331.637 100.854 331.725 100.414L340.913 57.3825C341.001 56.8977 341.222 56.5011 341.574 56.1927C341.927 55.8842 342.345 55.73 342.83 55.73H357.967C360.875 55.73 363.497 56.1266 365.833 56.9198C368.168 57.6689 370.107 58.8146 371.65 60.357C373.192 61.8552 374.272 63.7281 374.889 65.9755C375.506 68.2229 375.55 70.8008 375.021 73.7092C374.624 75.6481 374.272 77.3667 373.963 78.865C373.655 80.3632 373.258 82.0598 372.773 83.9547C371.804 88.0529 370.416 91.446 368.609 94.1341C366.846 96.7781 364.489 98.7611 361.536 100.083C358.628 101.361 354.904 102 350.365 102H333.047ZM342.235 94.3985H350.696C353.164 94.3985 355.235 94.0459 356.909 93.3409C358.628 92.6358 360.016 91.5121 361.074 89.9698C362.131 88.3834 362.947 86.3122 363.519 83.7564C363.872 82.4344 364.158 81.2886 364.379 80.3192C364.599 79.3056 364.797 78.3141 364.974 77.3447C365.194 76.3311 365.414 75.1854 365.635 73.9075C366.34 70.294 366.009 67.628 364.643 65.9094C363.321 64.1908 360.765 63.3315 356.975 63.3315H348.845L342.235 94.3985Z" fill="white"/>
<path d="M314.759 102C314.318 102 313.965 101.846 313.701 101.537C313.481 101.229 313.414 100.854 313.503 100.414L322.823 56.6555C322.911 56.2148 323.131 55.8403 323.484 55.5318C323.836 55.2233 324.233 55.0691 324.674 55.0691H330.16C330.645 55.0691 330.997 55.2233 331.217 55.5318C331.482 55.8403 331.57 56.2148 331.482 56.6555L322.162 100.414C322.074 100.854 321.853 101.229 321.501 101.537C321.148 101.846 320.73 102 320.245 102H314.759Z" fill="white"/>
<path d="M285.977 102.661C283.686 102.661 281.747 102.286 280.16 101.537C278.574 100.744 277.318 99.6425 276.392 98.2323C275.511 96.8222 274.938 95.1697 274.674 93.2748C274.409 91.3359 274.454 89.2207 274.806 86.9292C274.982 86.136 275.137 85.431 275.269 84.814C275.401 84.153 275.555 83.4259 275.731 82.6327C276.304 80.4294 277.053 78.3803 277.979 76.4854C278.948 74.5906 280.116 72.9381 281.482 71.5279C282.892 70.0737 284.523 68.95 286.374 68.1568C288.268 67.3636 290.428 66.967 292.851 66.967C295.584 66.967 297.655 67.4077 299.065 68.289C300.519 69.1263 301.643 70.1619 302.436 71.3957L302.899 69.2144C302.987 68.7738 303.207 68.3992 303.56 68.0907C303.912 67.7823 304.309 67.628 304.749 67.628H309.971C310.412 67.628 310.764 67.7823 311.029 68.0907C311.293 68.3992 311.381 68.7738 311.293 69.2144L304.617 100.414C304.529 100.854 304.309 101.229 303.956 101.537C303.604 101.846 303.207 102 302.766 102H297.544C297.06 102 296.685 101.846 296.421 101.537C296.2 101.229 296.134 100.854 296.222 100.414L296.751 97.9679C295.429 99.334 293.975 100.458 292.389 101.339C290.802 102.22 288.665 102.661 285.977 102.661ZM288.951 95.5883C290.802 95.5883 292.389 95.1697 293.711 94.3324C295.033 93.4952 296.09 92.4376 296.883 91.1596C297.721 89.8376 298.316 88.4936 298.668 87.1275C298.889 86.3343 299.087 85.4971 299.263 84.6157C299.439 83.6903 299.594 82.831 299.726 82.0378C299.99 80.7158 299.99 79.4599 299.726 78.2701C299.505 77.0363 298.955 76.0227 298.073 75.2295C297.192 74.4363 295.848 74.0397 294.041 74.0397C292.323 74.0397 290.846 74.4584 289.612 75.2956C288.423 76.0888 287.431 77.1464 286.638 78.4684C285.845 79.7904 285.206 81.2446 284.721 82.831C284.545 83.492 284.391 84.153 284.258 84.814C284.126 85.475 284.016 86.136 283.928 86.797C283.708 88.3834 283.641 89.8376 283.73 91.1596C283.862 92.4816 284.324 93.5613 285.118 94.3985C285.955 95.1917 287.233 95.5883 288.951 95.5883Z" fill="white"/>
<path d="M260.999 102C258.003 102 255.667 101.537 253.993 100.612C252.318 99.6866 251.239 98.3205 250.754 96.5138C250.269 94.663 250.313 92.3715 250.886 89.6394L254.125 74.6347H248.903C248.462 74.6347 248.11 74.4805 247.845 74.172C247.625 73.8635 247.559 73.489 247.647 73.0483L248.44 69.2145C248.528 68.7738 248.749 68.3993 249.101 68.0908C249.498 67.7823 249.939 67.6281 250.423 67.6281H255.579L257.959 56.6555C258.047 56.2148 258.267 55.8403 258.62 55.5318C258.972 55.2233 259.369 55.0691 259.81 55.0691H265.164C265.648 55.0691 266.001 55.2233 266.221 55.5318C266.486 55.8403 266.574 56.2148 266.486 56.6555L264.106 67.6281H272.369C272.809 67.6281 273.14 67.7823 273.36 68.0908C273.624 68.3993 273.713 68.7738 273.624 69.2145L272.831 73.0483C272.743 73.489 272.501 73.8635 272.104 74.172C271.752 74.4805 271.355 74.6347 270.914 74.6347H262.652L259.611 88.9784C259.347 90.1682 259.193 91.2038 259.149 92.0851C259.149 92.9224 259.391 93.5834 259.876 94.0681C260.36 94.5088 261.22 94.7291 262.454 94.7291H267.213C267.697 94.7291 268.05 94.8833 268.27 95.1918C268.491 95.5003 268.557 95.8748 268.469 96.3155L267.609 100.414C267.521 100.854 267.301 101.229 266.948 101.537C266.596 101.846 266.177 102 265.692 102H260.999Z" fill="white"/>
<path d="M229.294 102C228.853 102 228.5 101.846 228.236 101.537C228.016 101.229 227.95 100.854 228.038 100.414L234.648 69.2145C234.736 68.7738 234.956 68.3992 235.309 68.0908C235.705 67.7823 236.124 67.6281 236.565 67.6281H242.051C242.536 67.6281 242.888 67.7823 243.109 68.0908C243.329 68.3992 243.395 68.7738 243.307 69.2145L236.697 100.414C236.609 100.854 236.388 101.229 236.036 101.537C235.683 101.846 235.265 102 234.78 102H229.294ZM237.49 61.9435C237.049 61.9435 236.697 61.8113 236.432 61.5469C236.212 61.2384 236.146 60.8418 236.234 60.3571L237.292 55.5979C237.38 55.1572 237.6 54.7826 237.953 54.4742C238.305 54.1657 238.724 54.0115 239.209 54.0115H245.224C245.664 54.0115 246.017 54.1657 246.281 54.4742C246.546 54.7826 246.634 55.1572 246.546 55.5979L245.488 60.3571C245.4 60.8418 245.158 61.2384 244.761 61.5469C244.409 61.8113 244.012 61.9435 243.571 61.9435H237.49Z" fill="white"/>
<path d="M199.73 116.542C196.689 116.542 194.199 116.123 192.26 115.286C190.365 114.449 188.889 113.435 187.832 112.246C186.774 111.056 186.091 109.866 185.782 108.676C185.43 107.53 185.298 106.627 185.386 105.966C185.474 105.525 185.694 105.129 186.047 104.776C186.355 104.468 186.73 104.314 187.171 104.314H193.12C193.56 104.314 193.891 104.402 194.111 104.578C194.331 104.798 194.464 105.173 194.508 105.702C194.596 106.275 194.772 106.891 195.036 107.552C195.345 108.213 195.896 108.764 196.689 109.205C197.482 109.69 198.672 109.932 200.258 109.932C201.757 109.932 203.145 109.69 204.423 109.205C205.745 108.72 206.868 107.905 207.794 106.759C208.763 105.614 209.468 104.027 209.909 102L210.834 97.5052C209.512 98.7832 208.036 99.8187 206.406 100.612C204.775 101.405 202.77 101.802 200.391 101.802C197.967 101.802 195.94 101.427 194.309 100.678C192.679 99.8848 191.401 98.8052 190.476 97.4391C189.594 96.029 189.021 94.3765 188.757 92.4816C188.537 90.5868 188.603 88.4936 188.955 86.2021C189.043 85.5411 189.131 84.9462 189.22 84.4174C189.352 83.8886 189.506 83.2937 189.682 82.6327C190.299 80.4294 191.07 78.3803 191.996 76.4854C192.965 74.5906 194.133 72.9381 195.499 71.5279C196.865 70.0737 198.474 68.95 200.324 68.1568C202.175 67.3636 204.312 66.967 206.736 66.967C209.248 66.967 211.319 67.4518 212.95 68.4212C214.624 69.3466 215.858 70.5144 216.651 71.9245L217.18 69.2805C217.268 68.7958 217.488 68.3992 217.841 68.0907C218.238 67.7823 218.678 67.628 219.163 67.628H224.451C224.936 67.628 225.288 67.7823 225.509 68.0907C225.773 68.3992 225.861 68.7958 225.773 69.2805L219.031 101.141C218.546 103.52 217.819 105.658 216.849 107.552C215.924 109.447 214.69 111.056 213.148 112.378C211.65 113.744 209.799 114.779 207.595 115.484C205.392 116.19 202.77 116.542 199.73 116.542ZM203.299 94.7951C205.106 94.7951 206.67 94.3985 207.992 93.6053C209.314 92.8121 210.416 91.7766 211.297 90.4986C212.178 89.2207 212.795 87.9207 213.148 86.5987C213.28 86.0259 213.434 85.2988 213.611 84.4174C213.787 83.5361 213.919 82.831 214.007 82.3022C214.227 80.9362 214.205 79.6362 213.941 78.4023C213.721 77.1244 213.148 76.0888 212.222 75.2956C211.341 74.4584 209.997 74.0397 208.19 74.0397C206.472 74.0397 204.973 74.4584 203.696 75.2956C202.418 76.0888 201.36 77.1464 200.523 78.4684C199.73 79.7904 199.113 81.2446 198.672 82.831C198.54 83.3598 198.408 83.8886 198.275 84.4174C198.143 84.9462 198.033 85.4971 197.945 86.0699C197.724 87.6123 197.68 89.0665 197.813 90.4325C197.945 91.7545 198.43 92.8121 199.267 93.6053C200.148 94.3985 201.492 94.7951 203.299 94.7951Z" fill="white"/>
<path d="M171.262 102C170.822 102 170.469 101.846 170.205 101.537C169.984 101.229 169.918 100.854 170.007 100.414L176.617 69.2145C176.705 68.7738 176.925 68.3992 177.278 68.0908C177.674 67.7823 178.093 67.6281 178.533 67.6281H184.02C184.504 67.6281 184.857 67.7823 185.077 68.0908C185.298 68.3992 185.364 68.7738 185.276 69.2145L178.666 100.414C178.577 100.854 178.357 101.229 178.005 101.537C177.652 101.846 177.233 102 176.749 102H171.262ZM179.459 61.9435C179.018 61.9435 178.666 61.8113 178.401 61.5469C178.181 61.2384 178.115 60.8418 178.203 60.3571L179.261 55.5979C179.349 55.1572 179.569 54.7826 179.922 54.4742C180.274 54.1657 180.693 54.0115 181.177 54.0115H187.193C187.633 54.0115 187.986 54.1657 188.25 54.4742C188.515 54.7826 188.603 55.1572 188.515 55.5979L187.457 60.3571C187.369 60.8418 187.126 61.2384 186.73 61.5469C186.377 61.8113 185.981 61.9435 185.54 61.9435H179.459Z" fill="white"/>
<path d="M125.645 102C125.16 102 124.786 101.846 124.521 101.537C124.301 101.229 124.235 100.854 124.323 100.414L133.511 57.3825C133.599 56.8977 133.819 56.5011 134.172 56.1927C134.524 55.8842 134.943 55.73 135.428 55.73H150.565C153.473 55.73 156.095 56.1266 158.431 56.9198C160.766 57.6689 162.705 58.8146 164.247 60.357C165.79 61.8552 166.869 63.7281 167.486 65.9755C168.103 68.2229 168.147 70.8008 167.618 73.7092C167.222 75.6481 166.869 77.3667 166.561 78.865C166.252 80.3632 165.856 82.0598 165.371 83.9547C164.402 88.0529 163.013 91.446 161.207 94.1341C159.444 96.7781 157.086 98.7611 154.134 100.083C151.226 101.361 147.502 102 142.963 102H125.645ZM134.833 94.3985H143.294C145.761 94.3985 147.832 94.0459 149.507 93.3409C151.226 92.6358 152.614 91.5121 153.671 89.9698C154.729 88.3834 155.544 86.3122 156.117 83.7564C156.47 82.4344 156.756 81.2886 156.976 80.3192C157.197 79.3056 157.395 78.3141 157.571 77.3447C157.792 76.3311 158.012 75.1854 158.232 73.9075C158.937 70.294 158.607 67.628 157.241 65.9094C155.919 64.1908 153.363 63.3315 149.573 63.3315H141.443L134.833 94.3985Z" fill="white"/>
<path d="M56.5 49C62.2649 49.9398 65.4918 51.2107 70 55C73.2408 58.626 74.1139 61.1455 75 66V73.5C73.8282 79.7161 72.8436 82.9781 70.5 88.5C64.0811 101.172 58.6255 106.289 44.5 109H14L36 49H56.5ZM43.1494 60.5L43.0293 60.8301L30.0293 96.8301L29.7881 97.5H44.5674L44.6318 97.4824C48.1396 96.5229 50.6157 95.5626 52.7031 94.2275C54.7934 92.8905 56.4641 91.1964 58.3887 88.8145L58.4229 88.7725L60.4473 84.7236L60.4629 84.6914L60.4746 84.6582V84.6562C60.475 84.6551 60.4758 84.6535 60.4766 84.6514C60.478 84.647 60.4806 84.6404 60.4834 84.6318C60.4891 84.6148 60.4969 84.5894 60.5078 84.5566C60.5298 84.4903 60.5625 84.3927 60.6035 84.2686C60.6857 84.0201 60.8035 83.6636 60.9443 83.2334C61.2259 82.3731 61.6009 81.2149 61.9766 80.0254C62.352 78.8366 62.7286 77.613 63.0117 76.6221C63.1532 76.127 63.273 75.6849 63.3574 75.333C63.4363 75.0043 63.5 74.6949 63.5 74.5V69.9648L63.4951 69.9297C62.9872 66.3742 61.9583 64.1167 60.3994 62.6934C58.9397 61.3606 57.0849 60.8243 54.9795 60.5537L54.5557 60.5029L54.5273 60.5H43.1494Z" fill="white"/>
<path d="M79.5 108.5H54C60.0871 104.957 62.9359 102.396 67.5 97H80C86.6342 94.9717 89.0879 92.9071 93 87.5C95.7525 82.093 96.9943 78.8255 98 72.5V69.5C97.3119 66.7849 96.8698 65.3766 95.5 64C93.1764 61.1244 91.4664 60.3122 88 60H75.5C73.1838 55.3912 68.5 50.5 68.5 50V49H91.5C95.1921 49.1993 97.5912 50.2661 102 52.5C105.183 55.3658 106.764 57.6023 109 62.5C110.451 67.2053 110.432 70.0859 109.5 75.5L108 80.5C106.211 86.6594 104.885 89.9633 101 95C97.7786 99.0727 96.0547 101.018 92 104C87.3046 106.407 84.6175 107.429 79.5 108.5Z" fill="#75BC30"/>
</svg>
